<?xml version="1.0" encoding="utf-8"?>
<svg viewBox="0 0 1280 640" xmlns="http://www.w3.org/2000/svg" xmlns:bx="https://boxy-svg.com">
  <defs>
    <style bx:fonts="Architects Daughter">@import url(https://fonts.googleapis.com/css2?family=Architects+Daughter%3Aital%2Cwght%400%2C400&amp;display=swap);</style>
  </defs>
  <rect x="0" y="0" width="1280" style="fill: #1F2127;" height="640"/>
  <path d="M 340.381 214.022 L 220.966 214.022 C 217.907 214.022 214.98 215.24 212.811 217.397 L 143.333 286.869 C 141.176 289.032 139.958 291.965 139.958 295.024 L 139.958 414.426 C 139.958 420.79 145.118 425.956 151.488 425.956 L 340.381 425.956 C 346.745 425.956 351.911 420.79 351.911 414.426 L 351.911 225.553 C 351.911 219.182 346.745 214.022 340.381 214.022 Z M 328.85 402.896 L 163.018 402.896 L 163.018 299.805 L 225.741 237.083 L 328.85 237.083 L 328.85 402.896 Z M 198.719 283.494 C 192.343 283.494 187.189 288.654 187.189 295.024 L 187.189 339.309 C 187.189 345.673 192.343 350.84 198.719 350.84 C 205.09 350.84 210.243 345.673 210.243 339.309 L 210.243 295.024 C 210.243 288.654 205.09 283.494 198.719 283.494 Z M 245.938 350.84 C 252.302 350.84 257.462 345.673 257.462 339.309 L 257.462 262.502 C 257.462 256.132 252.302 250.972 245.938 250.972 C 239.56 250.972 234.408 256.132 234.408 262.502 L 234.408 339.309 C 234.408 345.673 239.56 350.84 245.938 350.84 Z M 293.156 350.84 C 299.521 350.84 304.686 345.673 304.686 339.309 L 304.686 262.502 C 304.686 256.132 299.521 250.972 293.156 250.972 C 286.792 250.972 281.625 256.132 281.625 262.502 L 281.625 339.309 C 281.625 345.673 286.779 350.84 293.156 350.84 Z" style="fill: rgb(255, 84, 84);"/>
  <text style="fill: rgb(255, 134, 168); font-family: &quot;Architects Daughter&quot;; font-size: 137.5px; font-weight: 700; white-space: pre;" x="405.689" y="359.134">Micro</text>
  <text style="fill: rgb(233, 60, 161); font-family: &quot;Architects Daughter&quot;; font-size: 152px; font-weight: 700; white-space: pre;" x="811.127" y="364.729">Pass</text>
</svg>