<?xml version="1.0" encoding="utf-8"?>
<svg viewBox="0 0 32 32" xmlns="http://www.w3.org/2000/svg">
  <path d="M 23.13 8 L 14.115 8 C 13.884 8 13.663 8.092 13.5 8.255 L 8.255 13.499 C 8.092 13.662 8 13.884 8 14.115 L 8 23.128 C 8 23.609 8.389 23.999 8.87 23.999 L 23.13 23.999 C 23.61 23.999 24 23.609 24 23.128 L 24 8.87 C 24 8.389 23.61 8 23.13 8 Z M 22.259 22.258 L 9.741 22.258 L 9.741 14.476 L 14.476 9.741 L 22.259 9.741 L 22.259 22.258 Z M 12.436 13.244 C 11.954 13.244 11.565 13.634 11.565 14.115 L 11.565 17.458 C 11.565 17.938 11.954 18.328 12.436 18.328 C 12.917 18.328 13.306 17.938 13.306 17.458 L 13.306 14.115 C 13.306 13.634 12.917 13.244 12.436 13.244 Z M 16 18.328 C 16.481 18.328 16.87 17.938 16.87 17.458 L 16.87 11.66 C 16.87 11.179 16.481 10.789 16 10.789 C 15.519 10.789 15.13 11.179 15.13 11.66 L 15.13 17.458 C 15.13 17.938 15.519 18.328 16 18.328 Z M 19.565 18.328 C 20.045 18.328 20.435 17.938 20.435 17.458 L 20.435 11.66 C 20.435 11.179 20.045 10.789 19.565 10.789 C 19.084 10.789 18.694 11.179 18.694 11.66 L 18.694 17.458 C 18.694 17.938 19.083 18.328 19.565 18.328 Z" style="fill: rgb(255, 84, 84);"/>
</svg>